<svg xmlns="http://www.w3.org/2000/svg" viewBox="129.98 20.2608 332.9 266.5">
	<path d="m 305.9498 20.5826 l 21.3399 5.1379 l 27.9056 14.4507 l 21.9959 4.8176 l 14.7741 10.2759 l 17.7279 12.8459 l 14.4456 8.671 l 10.5051 13.809 l 16.0873 10.2759 l 10.5052 13.809 l 1.6417 11.5614 l -2.2977 17.6625 l -6.5657 13.1672 l -14.117 15.0935 l -25.6078 8.67 l -24.2947 2.569 l -21.9959 -2.2476 l -11.8193 4.1748 l -10.5051 14.1304 l 1.6407 11.24 v 14.1293 l -16.7433 6.1021 l -8.8635 2.5689 l -25.6078 -1.6058 h -19.0421 l -19.3696 -10.2759 l -16.7433 4.4952 l -9.8491 7.7079 l -6.8942 5.1379 l -6.8943 10.2769 l -8.8645 6.7438 l -4.924 7.7069 l -1.6417 7.7069 l -9.193 9.9555 l -3.9394 4.1748 l -14.1171 1.2845 l 1.8262 -3.2117 l 3.7601 -4.4141 l 3.7612 -2.9431 l 2.6325 -4.7821 l 3.3849 -2.5751 l 0.7514 -1.8401 l 0.3762 -3.31 l 1.5049 -5.1501 l 6.3926 -9.9332 l -2.6325 5.5181 l 4.5126 -9.9322 l 1.5049 -4.7821 l -1.5049 -6.2541 l -1.5038 -7.3571 l -3.0087 -5.8851 l -4.8888 -4.0471 l -5.6412 -3.6781 l -6.3926 -3.6791 l -3.3849 -3.3111 l -1.1287 -4.7821 l 0.7524 -4.0461 l -5.265 -5.1501 l 2.2563 -5.1501 l -1.1276 -8.4612 l 1.8801 -3.3111 l 1.8801 -2.5751 h 3.7612 l -4.1374 -2.943 l -4.2607 -1.7985 l -12.8039 -11.5604 l -22.653 -11.5614 l -0.3285 -8.9914 l -4.924 -15.0935 l 4.5965 -9.6342 l 7.5503 -11.8828 l 21.6684 -8.671 l 11.1622 -13.4876 l 18.7136 -9.6342 l 11.4898 -14.1294 l 17.0719 -5.7807 l 13.7885 -9.3128 l 21.3399 -3.5331 l 10.8347 -7.0652 l 11.1622 -1.9262 l 13.1314 -2.2486 l 9.5216 -2.2476 z" stroke="#FF0000" stroke-width="0.1" fill="#000000"/>
</svg>